<svg width="382" height="279" viewBox="0 0 382 279" fill="none" xmlns="http://www.w3.org/2000/svg">
<g clip-path="url(#clip0_6532_71753)">
<path d="M190.996 278.657C296.48 278.657 381.992 229.285 381.992 168.381C381.992 107.478 296.48 58.1055 190.996 58.1055C85.5118 58.1055 0 107.478 0 168.381C0 229.285 85.5118 278.657 190.996 278.657Z" fill="#F5F5F5"/>
<path d="M295.477 30.6486L250.335 4.5996C249.986 4.349 249.577 4.19522 249.149 4.15388C248.722 4.11253 248.291 4.1851 247.9 4.3642L244.653 6.23933C244.296 6.48789 244.012 6.82753 243.831 7.22296C243.65 7.61839 243.578 8.05515 243.622 8.48786V132.044C243.689 133.248 244.038 134.419 244.641 135.463C245.245 136.506 246.086 137.393 247.097 138.051L292.23 164.067C292.578 164.319 292.987 164.474 293.414 164.517C293.842 164.56 294.274 164.489 294.665 164.311L297.912 162.428C298.265 162.178 298.545 161.839 298.723 161.445C298.901 161.051 298.971 160.617 298.927 160.187V36.6555C298.864 35.4537 298.518 34.2835 297.919 33.2399C297.32 32.1963 296.483 31.3086 295.477 30.6486Z" fill="#263238"/>
<path d="M253.347 134.162L250.1 136.037V146.314C250.116 146.615 250.203 146.908 250.354 147.169C250.505 147.43 250.715 147.651 250.968 147.816L252.486 148.692C252.755 148.829 253.053 148.9 253.355 148.9C253.656 148.9 253.954 148.829 254.223 148.692L255.741 147.816C256.281 147.467 256.698 146.959 256.935 146.363L259.865 137.921L253.347 134.162Z" fill="#263238"/>
<path d="M250.1 146.314C250.116 146.615 250.203 146.908 250.354 147.169C250.505 147.43 250.715 147.651 250.968 147.816L252.486 148.692C252.591 148.756 252.709 148.795 252.831 148.806C252.953 148.817 253.076 148.801 253.191 148.758C253.306 148.715 253.409 148.647 253.494 148.558C253.579 148.469 253.642 148.362 253.679 148.246L256.594 139.795L250.1 136.037V146.314Z" fill="#37474F"/>
<path d="M285.915 152.904L282.668 154.788V165.056C282.683 165.358 282.769 165.651 282.918 165.914C283.067 166.176 283.277 166.399 283.528 166.566L285.055 167.443C285.322 167.579 285.619 167.65 285.919 167.65C286.219 167.65 286.516 167.579 286.784 167.443L288.31 166.566C288.849 166.218 289.266 165.71 289.503 165.113L292.425 156.663L285.915 152.904Z" fill="#263238"/>
<path d="M282.668 165.058C282.683 165.359 282.769 165.653 282.918 165.915C283.067 166.178 283.277 166.401 283.528 166.568L285.055 167.444C285.159 167.508 285.277 167.547 285.399 167.558C285.521 167.569 285.644 167.553 285.759 167.51C285.874 167.467 285.978 167.399 286.062 167.31C286.147 167.221 286.21 167.114 286.248 166.998L289.178 158.547L282.684 154.789L282.668 165.058Z" fill="#37474F"/>
<path d="M247.308 6.57127L292.441 32.5472C293.452 33.2067 294.293 34.0949 294.896 35.1399C295.5 36.1849 295.849 37.3573 295.915 38.5622V162.118C296.001 162.552 295.949 163.002 295.766 163.405C295.584 163.808 295.279 164.143 294.896 164.364C294.513 164.586 294.07 164.681 293.63 164.638C293.19 164.595 292.774 164.415 292.441 164.123L247.308 138.099C246.299 137.44 245.459 136.553 244.857 135.51C244.254 134.466 243.907 133.295 243.842 132.092V8.56817C243.755 8.13496 243.806 7.68542 243.989 7.28294C244.171 6.88045 244.475 6.5453 244.858 6.32475C245.241 6.10419 245.683 6.00934 246.123 6.05357C246.562 6.0978 246.977 6.27887 247.308 6.57127Z" fill="#37474F"/>
<path d="M181.768 175.456L230.586 203.639L298.935 164.18L295.68 162.297L246.862 134.113L181.768 171.697V175.456Z" fill="#455A64"/>
<path d="M230.586 203.639V199.881L298.935 160.422V164.18L230.586 203.639Z" fill="#263238"/>
<path d="M230.617 198.005C239.741 184.206 239.238 159.764 238.451 155.648C238.451 155.648 242.306 181.462 247.047 188.833" stroke="#FAFAFA" stroke-width="0.600693" stroke-miterlimit="10"/>
<path d="M240.107 165.025C241.682 172.55 259.484 177.867 259.484 177.867" stroke="#FAFAFA" stroke-width="0.600693" stroke-miterlimit="10"/>
<path d="M238.354 172.517C238.547 172.192 238.836 171.933 239.18 171.774C239.524 171.615 239.908 171.565 240.282 171.629C240.656 171.693 241.001 171.869 241.273 172.133C241.544 172.398 241.729 172.738 241.803 173.11C241.803 173.11 242.088 169.457 244.149 170.488" stroke="#FAFAFA" stroke-width="0.600693" stroke-miterlimit="10"/>
<path d="M237.646 177.867C238.564 175.902 241.941 174.823 243.426 179.49C243.426 179.49 243.653 171.154 249.165 173.662" stroke="#FAFAFA" stroke-width="0.600693" stroke-miterlimit="10"/>
<path d="M236.08 185.245C238.012 181.527 243.313 180.041 244.676 183.467C244.676 179.238 249.547 173.897 255.473 176.47" stroke="#FAFAFA" stroke-width="0.600693" stroke-miterlimit="10"/>
<path d="M232.811 194.198C235.075 190.075 240.636 182.639 245.49 185.634" stroke="#FAFAFA" stroke-width="0.600693" stroke-miterlimit="10"/>
<path d="M292.423 122.838L292.431 126.597L230.584 162.297L181.766 134.113V130.355L243.605 94.6543L292.423 122.838Z" fill="#263238"/>
<path d="M292.423 122.838L230.584 158.539L181.766 130.355L243.605 94.6543L292.423 122.838Z" fill="#455A64"/>
<path d="M292.423 81.4964L292.431 85.2547L230.584 120.955L181.766 92.7715V89.0131L243.605 53.3125L292.423 81.4964Z" fill="#263238"/>
<path d="M292.423 81.4964L230.584 117.197L181.766 89.0131L243.605 53.3125L292.423 81.4964Z" fill="#455A64"/>
<path d="M230.375 68.1797L185.242 42.1632C184.894 41.9113 184.485 41.756 184.057 41.7133C183.629 41.6705 183.198 41.7417 182.807 41.9196C182.222 42.2525 180.144 43.462 179.56 43.7948C179.204 44.0443 178.922 44.3844 178.742 44.7797C178.562 45.1751 178.491 45.6114 178.537 46.0433V169.567C178.603 170.771 178.952 171.942 179.556 172.986C180.16 174.029 181.001 174.916 182.011 175.574L227.144 201.598C227.493 201.85 227.901 202.006 228.329 202.048C228.757 202.091 229.188 202.02 229.58 201.842C230.164 201.501 232.258 200.3 232.826 199.951C233.184 199.704 233.468 199.366 233.651 198.972C233.834 198.578 233.908 198.142 233.866 197.71V74.1947C233.799 72.988 233.448 71.8142 232.841 70.7689C232.235 69.7236 231.39 68.8364 230.375 68.1797Z" fill="#263238"/>
<path opacity="0.2" d="M230.586 87.133L233.849 85.2579V73.9746L230.578 75.8579L230.586 87.133Z" fill="black"/>
<path opacity="0.2" d="M295.696 49.5588L298.951 47.6756V36.4004L295.68 38.2836L295.696 49.5588Z" fill="black"/>
<path d="M188.276 171.693L185.029 173.568V183.845C185.046 184.146 185.133 184.439 185.284 184.7C185.435 184.961 185.645 185.183 185.898 185.347L187.416 186.224C187.685 186.36 187.983 186.431 188.284 186.431C188.586 186.431 188.884 186.36 189.153 186.224L190.671 185.347C191.208 185 191.625 184.495 191.864 183.902L194.795 175.452L188.276 171.693Z" fill="#263238"/>
<path d="M185.021 183.847C185.038 184.148 185.125 184.441 185.276 184.702C185.427 184.963 185.637 185.184 185.89 185.349L187.408 186.225C187.513 186.289 187.631 186.328 187.753 186.339C187.875 186.351 187.998 186.334 188.113 186.291C188.228 186.248 188.331 186.18 188.416 186.091C188.5 186.002 188.564 185.896 188.601 185.779L191.532 177.329L185.038 173.57L185.021 183.847Z" fill="#37474F"/>
<path d="M220.821 190.486L217.574 192.361V202.638C217.589 202.939 217.675 203.231 217.824 203.492C217.974 203.753 218.183 203.975 218.435 204.14L219.961 205.017C220.229 205.153 220.525 205.224 220.825 205.224C221.126 205.224 221.422 205.153 221.69 205.017L223.216 204.14C223.751 203.791 224.167 203.287 224.409 202.695L227.331 194.245L220.821 190.486Z" fill="#263238"/>
<path d="M217.574 202.597C217.589 202.897 217.675 203.19 217.824 203.451C217.974 203.712 218.183 203.934 218.435 204.099L219.961 204.975C220.066 205.039 220.184 205.078 220.306 205.089C220.428 205.101 220.551 205.084 220.666 205.041C220.78 204.998 220.884 204.93 220.969 204.841C221.053 204.752 221.117 204.646 221.154 204.529L224.076 196.079L217.582 192.32L217.574 202.597Z" fill="#37474F"/>
<path d="M181.978 44.0478L227.119 70.0643C228.129 70.7243 228.969 71.6128 229.571 72.6578C230.173 73.7028 230.521 74.875 230.585 76.0794V203.637C230.585 203.637 228.077 202.152 227.119 201.6L181.986 175.575C180.976 174.917 180.135 174.031 179.531 172.987C178.927 171.943 178.578 170.772 178.512 169.568V46.0447C178.425 45.6115 178.476 45.162 178.659 44.7595C178.841 44.357 179.145 44.0219 179.528 43.8013C179.911 43.5808 180.353 43.4859 180.793 43.5301C181.232 43.5744 181.647 43.7554 181.978 44.0478Z" fill="#37474F"/>
<path opacity="0.2" d="M227.119 70.0643L181.978 44.0478C181.647 43.7554 181.232 43.5744 180.793 43.5301C180.353 43.4859 179.911 43.5808 179.528 43.8013C179.145 44.0219 178.841 44.357 178.659 44.7595C178.476 45.162 178.425 45.6115 178.512 46.0447V57.0764L230.585 87.111V76.0794C230.521 74.875 230.173 73.7028 229.571 72.6578C228.969 71.6128 228.129 70.7243 227.119 70.0643Z" fill="black"/>
<path d="M253.371 64.587L289.169 43.9199L289.177 81.4957" stroke="#FAFAFA" stroke-width="0.600693" stroke-linecap="round" stroke-linejoin="round"/>
<path d="M282.668 72.1038L289.171 43.9199L276.158 66.4703" stroke="#FAFAFA" stroke-width="0.600693" stroke-linecap="round" stroke-linejoin="round"/>
<path d="M289.169 43.9199L269.646 62.7037" stroke="#FAFAFA" stroke-width="0.600693" stroke-linecap="round" stroke-linejoin="round"/>
<path d="M289.169 75.5067C289.169 70.2385 283.162 69.9462 283.162 69.9462C283.37 68.8883 283.298 67.7942 282.952 66.773C282.606 65.7518 281.998 64.8392 281.189 64.126C279.249 62.5025 277.942 63.3792 277.544 64.0611C277.544 64.0611 277.95 59.1906 273.762 58.7441C273.762 58.7441 276.538 53.622 273.762 52.8184" stroke="#FAFAFA" stroke-width="0.600693" stroke-linecap="round" stroke-linejoin="round"/>
<path d="M289.168 67.4043C288.957 64.7093 286.895 61.2837 284.776 62.9397C284.776 62.9397 285.336 57.0546 281.14 57.8257C281.14 57.8257 283.112 52.3708 278.98 53.7183C278.98 53.7183 281.96 49.9599 279.654 49.416" stroke="#FAFAFA" stroke-width="0.600693" stroke-linecap="round" stroke-linejoin="round"/>
<path d="M306.654 30.7693C306.615 30.3383 306.463 29.9253 306.212 29.5729C305.96 29.2205 305.62 28.9414 305.225 28.7643L256.837 0.823943C255.761 0.27968 254.572 -0.00390625 253.367 -0.00390625C252.161 -0.00390625 250.972 0.27968 249.897 0.823943L175.476 43.7978C175.081 43.975 174.74 44.2541 174.489 44.6065C174.238 44.9589 174.085 45.3718 174.047 45.8028V49.5612C174.085 49.9922 174.238 50.4052 174.489 50.7576C174.74 51.11 175.081 51.3891 175.476 51.5662L223.864 79.4985C224.938 80.0465 226.128 80.3322 227.334 80.3322C228.54 80.3322 229.73 80.0465 230.804 79.4985L305.225 36.5327C305.62 36.3555 305.96 36.0764 306.212 35.724C306.463 35.3716 306.615 34.9587 306.654 34.5277V30.7693Z" fill="#37474F"/>
<path d="M223.864 75.7401L175.476 47.8079C173.56 46.6958 173.56 44.9018 175.476 43.7978L249.897 0.823943C250.973 0.27968 252.161 -0.00390625 253.367 -0.00390625C254.573 -0.00390625 255.761 0.27968 256.837 0.823943L305.225 28.7643C307.149 29.8764 307.149 31.6622 305.225 32.7743L230.805 75.7401C229.73 76.2881 228.541 76.5738 227.334 76.5738C226.128 76.5738 224.939 76.2881 223.864 75.7401Z" fill="#455A64"/>
<path opacity="0.1" d="M295.681 42.0371L272.903 70.2291L233.85 92.7794L233.842 77.7377L295.681 42.0371Z" fill="black"/>
<path opacity="0.1" d="M292.433 85.2539L272.903 111.563L233.85 134.113V119.079L292.433 85.2539Z" fill="black"/>
<path opacity="0.1" d="M292.433 126.598L272.903 152.906L233.85 175.457V160.415L292.433 126.598Z" fill="black"/>
<path d="M202.847 208.706L142.965 243.278L75.541 204.258L135.415 169.693L202.847 208.706Z" fill="#30C0F9"/>
<path opacity="0.5" d="M202.847 208.706L142.965 243.278L75.541 204.258L135.415 169.693L202.847 208.706Z" fill="black"/>
<path d="M135.415 122.834V169.696L75.541 204.26V157.406L135.415 122.834Z" fill="#30C0F9"/>
<path opacity="0.23" d="M135.415 122.834V169.696L75.541 204.26V157.406L135.415 122.834Z" fill="black"/>
<path d="M142.965 196.417V243.279L75.541 204.258V157.404L142.965 196.417Z" fill="#30C0F9"/>
<path opacity="0.38" d="M142.965 196.417V243.279L75.541 204.258V157.404L142.965 196.417Z" fill="black"/>
<path d="M202.846 161.847V208.709L135.414 169.696V122.834L202.846 161.847Z" fill="#30C0F9"/>
<path opacity="0.4" d="M202.846 161.847V208.709L135.414 169.696V122.834L202.846 161.847Z" fill="black"/>
<path d="M202.847 208.706V161.844L142.965 196.416V243.278L202.847 208.706Z" fill="#30C0F9"/>
<path opacity="0.23" d="M202.847 208.706V161.844L142.965 196.416V243.278L202.847 208.706Z" fill="black"/>
<path d="M135.414 122.832L135.503 96.8887L202.757 135.95L202.846 161.845L135.414 122.832Z" fill="#30C0F9"/>
<path opacity="0.2" d="M135.414 122.832L135.503 96.8887L202.757 135.95L202.846 161.845L135.414 122.832Z" fill="black"/>
<path d="M142.965 196.417L148.582 173.721L207.913 139.465L202.847 161.845L142.965 196.417Z" fill="#30C0F9"/>
<path opacity="0.3" d="M142.965 196.417L148.582 173.721L207.913 139.465L202.847 161.845L142.965 196.417Z" fill="black"/>
<path d="M75.5418 157.406L68.3984 133.865L128.273 99.293L135.416 122.834L75.5418 157.406Z" fill="#30C0F9"/>
<path opacity="0.1" d="M75.5418 157.406L68.3984 133.865L128.273 99.293L135.416 122.834L75.5418 157.406Z" fill="black"/>
<path d="M75.5408 157.405L61.457 137.947L128.889 176.96L142.965 196.417L75.5408 157.405Z" fill="#30C0F9"/>
<path opacity="0.45" d="M75.5408 157.405L61.457 137.947L128.889 176.96L142.965 196.417L75.5408 157.405Z" fill="black"/>
<g opacity="0.7">
<path d="M160.594 229.34C160.496 229.34 160.403 229.301 160.333 229.233C160.263 229.165 160.223 229.072 160.221 228.974V220.727C160.223 220.629 160.263 220.535 160.332 220.465C160.402 220.396 160.496 220.356 160.594 220.354C160.692 220.356 160.785 220.396 160.853 220.466C160.921 220.536 160.959 220.629 160.959 220.727V228.974C160.959 229.071 160.921 229.164 160.852 229.233C160.784 229.301 160.691 229.34 160.594 229.34Z" fill="white"/>
<path d="M159.514 223.585C159.466 223.593 159.417 223.593 159.368 223.585C159.28 223.544 159.21 223.471 159.174 223.38C159.138 223.29 159.137 223.189 159.173 223.098L160.488 220.07L161.95 221.759C162.002 221.834 162.024 221.927 162.013 222.018C162.001 222.109 161.957 222.193 161.887 222.253C161.818 222.313 161.729 222.346 161.637 222.345C161.545 222.343 161.457 222.308 161.389 222.246L160.699 221.434L159.888 223.382C159.853 223.449 159.798 223.504 159.732 223.541C159.665 223.577 159.59 223.592 159.514 223.585Z" fill="white"/>
<path d="M163.996 227.4C163.899 227.398 163.806 227.357 163.737 227.288C163.669 227.218 163.631 227.124 163.631 227.026V218.787C163.631 218.69 163.669 218.597 163.738 218.529C163.806 218.46 163.899 218.422 163.996 218.422C164.093 218.422 164.186 218.46 164.254 218.529C164.323 218.597 164.361 218.69 164.361 218.787V227.018C164.363 227.067 164.354 227.116 164.336 227.162C164.318 227.208 164.292 227.249 164.258 227.285C164.224 227.32 164.183 227.349 164.138 227.368C164.094 227.388 164.045 227.399 163.996 227.4Z" fill="white"/>
<path d="M162.915 221.645C162.866 221.653 162.817 221.653 162.769 221.645C162.724 221.626 162.684 221.598 162.65 221.563C162.617 221.528 162.59 221.486 162.573 221.441C162.556 221.396 162.547 221.347 162.549 221.299C162.551 221.25 162.562 221.202 162.582 221.158L163.889 218.09L165.35 219.77C165.417 219.84 165.455 219.933 165.455 220.03C165.455 220.127 165.417 220.22 165.35 220.29C165.316 220.324 165.276 220.351 165.231 220.37C165.186 220.389 165.139 220.398 165.09 220.398C165.042 220.398 164.994 220.389 164.949 220.37C164.905 220.351 164.864 220.324 164.83 220.29L164.14 219.478L163.329 221.426C163.295 221.504 163.236 221.569 163.16 221.609C163.085 221.649 162.998 221.661 162.915 221.645Z" fill="white"/>
</g>
<g opacity="0.7">
<path d="M150.782 234.933C150.642 234.936 150.505 234.899 150.385 234.827C150.237 234.736 150.118 234.606 150.039 234.451C149.96 234.297 149.925 234.124 149.938 233.951V232.936C149.94 232.838 149.981 232.746 150.05 232.677C150.12 232.609 150.214 232.571 150.312 232.571C150.408 232.571 150.501 232.609 150.57 232.678C150.638 232.746 150.677 232.839 150.677 232.936V233.951C150.677 234.097 150.677 234.178 150.75 234.194C150.823 234.211 150.863 234.194 150.985 234.129C151.214 233.918 151.394 233.66 151.513 233.373C151.632 233.086 151.687 232.776 151.675 232.465V228.244C151.675 228.147 151.714 228.054 151.782 227.986C151.851 227.917 151.944 227.879 152.041 227.879C152.137 227.879 152.23 227.917 152.299 227.986C152.367 228.054 152.406 228.147 152.406 228.244V232.465C152.424 232.904 152.339 233.34 152.157 233.739C151.975 234.138 151.701 234.489 151.359 234.763C151.185 234.87 150.986 234.929 150.782 234.933Z" fill="white"/>
<path d="M146.91 231.532V230.899C147.007 229.273 147.482 227.692 148.298 226.283C149.114 224.873 150.248 223.674 151.61 222.781C152.941 222.018 154.208 221.905 155.182 222.473C155.701 222.829 156.116 223.318 156.381 223.89C156.647 224.461 156.754 225.093 156.692 225.72V225.931L146.91 231.532ZM153.818 222.814C153.168 222.844 152.537 223.039 151.984 223.382C150.817 224.15 149.828 225.16 149.086 226.343C148.344 227.527 147.865 228.856 147.681 230.241L155.937 225.468C155.972 224.998 155.885 224.527 155.685 224.1C155.484 223.673 155.177 223.306 154.792 223.033C154.492 222.876 154.156 222.8 153.818 222.814Z" fill="white"/>
</g>
<path opacity="0.7" d="M61.457 137.947L128.889 176.96L142.965 196.417L128.134 177.642L61.457 137.947Z" fill="white"/>
<path opacity="0.7" d="M202.847 161.844L142.965 196.416V243.278L144.085 197.358L202.847 161.844Z" fill="white"/>
</g>
<defs>
<clipPath id="clip0_6532_71753">
<rect width="382" height="278.656" fill="white"/>
</clipPath>
</defs>
</svg>
