<svg width="20" height="20" viewBox="0 0 20 20" fill="none" xmlns="http://www.w3.org/2000/svg">
<path d="M2.5 2.5L17.5 17.5" stroke="#A8AAAE" stroke-width="1.2" stroke-linecap="round" stroke-linejoin="round"/>
<path d="M8.8207 8.82227C8.16947 9.47304 8.16909 10.5285 8.81987 11.1798C9.47064 11.831 10.5261 11.8314 11.1774 11.1806" stroke="#A8AAAE" stroke-width="1.5" stroke-linecap="round" stroke-linejoin="round"/>
<path d="M7.63686 3.89337C7.31827 3.98451 7.13388 4.31666 7.22502 4.63525C7.31616 4.95384 7.64831 5.13823 7.9669 5.04709L7.63686 3.89337ZM9.99938 4.16607L9.99725 4.76607H9.99938V4.16607ZM18.3327 9.9994L18.8536 10.2972C18.9591 10.1127 18.9591 9.88619 18.8537 9.7017L18.3327 9.9994ZM15.8063 12.4988C15.5813 12.7422 15.5963 13.1218 15.8396 13.3467C16.083 13.5716 16.4626 13.5567 16.6875 13.3133L15.8063 12.4988ZM14.799 14.9543C15.0737 14.7691 15.1462 14.3961 14.961 14.1214C14.7757 13.8467 14.4028 13.7742 14.128 13.9595L14.799 14.9543ZM1.66602 9.9994L1.14511 9.70164C1.03966 9.88612 1.03965 10.1126 1.14508 10.2971L1.66602 9.9994ZM5.86282 6.04511C6.13706 5.8591 6.20858 5.48599 6.02256 5.21175C5.83655 4.93752 5.46344 4.866 5.18921 5.05202L5.86282 6.04511ZM7.9669 5.04709C8.62707 4.85824 9.31061 4.76363 9.99725 4.76606L10.0015 3.56607C9.20181 3.56324 8.40572 3.67343 7.63686 3.89337L7.9669 5.04709ZM9.99938 4.76607C13.0447 4.76607 15.6543 6.52178 17.8118 10.2971L18.8537 9.7017C16.5661 5.69869 13.6207 3.56607 9.99938 3.56607V4.76607ZM17.8118 9.70163C17.1817 10.8039 16.5126 11.7346 15.8063 12.4988L16.6875 13.3133C17.4662 12.4708 18.1871 11.4632 18.8536 10.2972L17.8118 9.70163ZM14.128 13.9595C12.8663 14.8104 11.4961 15.2327 9.99935 15.2327V16.4327C11.7393 16.4327 13.3424 15.9367 14.799 14.9543L14.128 13.9595ZM9.99935 15.2327C6.95402 15.2327 4.34439 13.477 2.18695 9.7017L1.14508 10.2971C3.43264 14.3001 6.37801 16.4327 9.99935 16.4327V15.2327ZM2.18692 10.2972C3.29656 8.35589 4.52663 6.95145 5.86282 6.04511L5.18921 5.05202C3.6604 6.08901 2.31714 7.65123 1.14511 9.70164L2.18692 10.2972Z" fill="#A8AAAE"/>
</svg>
