<svg width="24" height="24" viewBox="0 0 24 24" fill="none" xmlns="http://www.w3.org/2000/svg">
<path d="M22 2.43185V20.4375C21.9875 20.4671 21.9772 20.4977 21.9692 20.5289C21.9005 20.949 21.6804 21.3295 21.3503 21.5985C21.0842 21.8239 20.7667 21.9232 20.4375 22H20.0462C20.0349 21.9932 20.0246 21.9819 20.0129 21.9804C19.103 21.8557 18.4543 21.0835 18.4803 20.0966C18.4974 19.4608 18.4837 18.8216 18.4832 18.1839C18.4832 18.1296 18.4778 18.0753 18.4734 17.9941C16.8948 19.6217 15.0163 20.5822 12.7816 20.7857C10.547 20.9891 8.52665 20.3568 6.68826 19.0363C6.68826 19.451 6.69217 19.8217 6.68826 20.1924C6.68092 20.7945 6.4647 21.309 5.95888 21.6469C5.71428 21.8107 5.40609 21.8836 5.12725 21.998H4.73589C4.55098 21.9403 4.35481 21.9061 4.18408 21.821C3.4909 21.4762 3.1739 20.8962 3.17341 20.1328C3.17341 16.8854 3.17341 13.6381 3.17341 10.3908C3.18009 10.3458 3.1791 10.3 3.17048 10.2553C3.14797 10.1976 3.11813 10.1208 3.0697 10.0978C2.33591 9.75059 2.00033 9.1647 2.0013 8.36607C2.0013 6.89531 2.0013 5.42455 2.0013 3.95379C2.0013 3.50484 1.99837 3.05589 2.0013 2.60693C2.0013 2.33893 2.14806 2.1301 2.37505 2.04207C2.77814 1.88655 3.1695 2.17901 3.17048 2.6441C3.17276 3.93228 3.17276 5.22013 3.17048 6.50765V6.71208H4.34454V6.46266C4.34454 5.19372 4.34454 3.92461 4.34454 2.65535C4.34454 2.38245 4.44482 2.17069 4.69676 2.05527C5.09692 1.87139 5.51518 2.16825 5.51616 2.63823C5.51958 3.9269 5.51616 5.21507 5.51616 6.50178V6.71305H6.69022V5.49041C6.69022 4.54017 6.69022 3.59042 6.69022 2.64019C6.69022 2.26117 6.93482 1.99805 7.27725 2.00001C7.61969 2.00197 7.85597 2.26508 7.85988 2.64654C7.85988 2.82212 7.85988 2.99818 7.85988 3.17375V4.19539C11.5288 2.53259 14.8994 2.97275 18.0141 5.51584C18.0596 5.43026 18.1119 5.33489 18.1608 5.23659C18.811 3.89413 19.8397 2.90379 21.0779 2.11103C21.4139 1.89633 21.7662 2.00246 21.9477 2.35556C21.9636 2.382 21.9811 2.40747 22 2.43185ZM11.9574 6.71648C11.68 6.74729 11.3997 6.76538 11.1257 6.81038C9.83133 7.02996 8.7595 7.6452 7.9088 8.64434C7.86805 8.6941 7.84001 8.75301 7.8271 8.816C7.74741 9.20785 7.53866 9.56169 7.2342 9.82101C7.17015 9.87419 7.11883 9.94103 7.08402 10.0166C6.69396 10.9612 6.59185 11.9999 6.7905 13.0023C7.33693 15.8516 10.1532 17.7349 13.0262 17.1711C15.8146 16.6233 17.679 13.9775 17.2465 11.1845C16.8517 8.64679 14.5437 6.68029 11.9574 6.71648ZM18.4847 13.7589H18.9504C19.4361 13.7589 19.6558 13.9765 19.6563 14.4587C19.6563 15.7146 19.6563 16.9699 19.6563 18.2245C19.6563 18.8818 19.6563 19.5391 19.6563 20.1959C19.6563 20.4893 19.7996 20.7006 20.0476 20.7891C20.4595 20.9358 20.8303 20.637 20.8303 20.1489C20.8303 14.7419 20.8303 9.33505 20.8303 3.92836C20.8303 3.87408 20.8225 3.82028 20.8181 3.76013C20.8 3.76593 20.7825 3.77347 20.7658 3.78262C20.7252 3.81588 20.685 3.84914 20.6474 3.88435C19.2493 5.19796 18.5228 6.81233 18.4896 8.7309C18.4749 9.56964 18.4896 10.4093 18.4896 11.2486L18.4847 13.7589ZM18.4847 14.9326C18.3174 14.9326 18.1726 14.9488 18.0331 14.9287C17.834 14.8999 17.7396 14.9845 17.6418 15.1537C16.3855 17.417 13.7703 18.739 11.2016 18.3986C9.40035 18.1599 7.94255 17.3085 6.82621 15.8736C6.7905 15.8276 6.75284 15.7821 6.68631 15.7C6.68631 16.3035 6.68386 16.8497 6.69022 17.396C6.69634 17.4642 6.72733 17.5277 6.7773 17.5745C8.45082 19.0803 10.4056 19.8217 12.6594 19.6149C15.1234 19.3889 17.0352 18.1922 18.4211 16.1494C18.4548 16.1028 18.4751 16.0478 18.4798 15.9905C18.4871 15.6447 18.4842 15.3004 18.4842 14.9307L18.4847 14.9326ZM7.86037 7.03241C9.36757 5.87334 11.021 5.37402 12.8682 5.6205C14.7154 5.86699 16.1801 6.79424 17.2964 8.28342C17.3766 7.82175 17.4466 7.38013 17.5332 6.94144C17.5494 6.8869 17.5493 6.82882 17.5331 6.77429C17.5168 6.71976 17.4851 6.67113 17.4417 6.63432C16.1046 5.32006 14.5038 4.58142 12.6393 4.4184C10.9667 4.27511 9.41062 4.6551 7.97484 5.5178C7.92592 5.54714 7.86624 5.60828 7.86575 5.65522C7.85743 6.10222 7.86037 6.54873 7.86037 7.03241ZM4.34454 10.2509V10.4289C4.34454 13.6684 4.34454 16.9081 4.34454 20.1479C4.34307 20.2 4.34454 20.2521 4.34894 20.304C4.36344 20.448 4.43092 20.5815 4.53831 20.6786C4.64569 20.7757 4.78532 20.8294 4.9301 20.8294C5.07489 20.8294 5.21452 20.7757 5.3219 20.6786C5.42928 20.5815 5.49677 20.448 5.51126 20.304C5.51618 20.2389 5.51765 20.1736 5.51567 20.1083C5.51567 16.8946 5.51567 13.681 5.51567 10.4675V10.2543L4.34454 10.2509ZM3.17488 7.90635C3.17488 8.12056 3.16705 8.31521 3.17488 8.50887C3.17756 8.65734 3.23821 8.79888 3.34388 8.90324C3.44955 9.0076 3.59185 9.06651 3.74039 9.06738C4.53288 9.07553 5.3257 9.07553 6.11884 9.06738C6.25103 9.06977 6.37958 9.02399 6.48048 8.93859C6.58139 8.85319 6.64777 8.734 6.66723 8.60326C6.69658 8.37634 6.67359 8.14208 6.67359 7.90587L3.17488 7.90635Z" fill="#8F9194"/>
</svg>
