<svg width="32" height="24" viewBox="0 0 32 24" fill="none" xmlns="http://www.w3.org/2000/svg">
<path fill-rule="evenodd" clip-rule="evenodd" d="M24.9395 0H7.06049C3.43723 0 0.5 2.90443 0.5 6.48722V17.5128C0.5 21.0956 3.43723 24 7.06049 24H24.9395C28.5628 24 31.5 21.0956 31.5 17.5128V6.48722C31.5 2.90443 28.5628 0 24.9395 0ZM10.8644 12.0537C10.8644 12.5788 10.8636 13.1038 10.8627 13.6285C10.8603 15.0715 10.8579 16.5127 10.8736 17.9474C10.8736 18.4229 10.768 18.6288 10.2427 18.6031C9.42953 18.5622 8.61177 18.5652 7.79248 18.6031C7.3009 18.6243 7.19983 18.4304 7.20136 17.9883C7.21463 13.9825 7.21463 9.97766 7.20136 5.97387C7.20136 5.56501 7.29783 5.37724 7.75266 5.39389C8.59186 5.42267 9.43718 5.42569 10.2733 5.39389C10.7603 5.37421 10.8706 5.56501 10.866 6.01021C10.8576 7.38229 10.8599 8.75579 10.8623 10.1297C10.8634 10.771 10.8644 11.4124 10.8644 12.0537ZM13.2943 10.3564C13.293 10.8904 13.2917 11.4244 13.2917 11.9584C13.2917 12.5101 13.2937 13.0619 13.2956 13.6138C13.3005 15.0281 13.3055 16.4427 13.2779 17.8565C13.2657 18.4698 13.4648 18.6212 14.0559 18.6046C14.7061 18.5869 15.3584 18.5933 16.0111 18.5998C16.8127 18.6077 17.6149 18.6156 18.4142 18.5788C20.742 18.4728 22.8675 17.8096 24.2458 15.7986C25.7649 13.5892 25.843 11.1785 24.693 8.82075C23.5643 6.50692 21.4571 5.54836 18.9548 5.43176C18.037 5.38975 17.1173 5.39483 16.1975 5.39991C15.4599 5.40399 14.7222 5.40807 13.9854 5.38785C13.3775 5.37725 13.2734 5.60136 13.281 6.13439C13.301 7.54174 13.2976 8.94908 13.2943 10.3564ZM21.7557 15.2277C20.5612 16.2544 19.1294 16.3286 17.8859 16.268H17.8936C17.6725 16.268 17.4767 16.2647 17.2978 16.2616C16.9413 16.2554 16.6517 16.2504 16.3622 16.2756C15.7833 16.3256 15.7129 16.0606 15.7266 15.5593C15.7619 14.3676 16.4495 13.7422 17.4847 13.3576C18.6057 12.9396 18.6684 12.6671 17.9671 11.819C17.6244 11.3722 17.4539 10.8192 17.4862 10.2593C17.4985 9.09938 18.2535 8.38463 19.4142 8.39221C20.575 8.39978 21.255 9.07061 21.2841 10.2275C21.3032 10.9136 21.0704 11.5834 20.6286 12.1128C20.2182 12.6216 20.3055 12.9729 20.9349 13.191C21.1485 13.2723 21.3571 13.3658 21.5597 13.4711C22.7603 14.0405 22.7864 14.3388 21.7557 15.2277Z" fill="white"/>
</svg>
